HIERARCHY
ROOT SpineBase
{
  OFFSET 0.000000 0.000000 0.000000
  CHANNELS 6 Xposition Yposition Zposition Zrotation Xrotation Yrotation
  JOINT SpineMid
  {
    OFFSET -0.000000 27.086401 0.000000
    CHANNELS 3 Zrotation Xrotation Yrotation
    JOINT SpineShoulder
    {
      OFFSET -0.023319 20.219683 -0.554836
      CHANNELS 3 Zrotation Xrotation Yrotation
      JOINT Neck
      {
        OFFSET -0.031505 6.709122 -0.471352
        CHANNELS 3 Zrotation Xrotation Yrotation
        JOINT Head
        {
          OFFSET 2.727008 11.742793 -0.309904
          CHANNELS 3 Zrotation Xrotation Yrotation
          End Site
          {
            OFFSET 0 0 0
          }
        }
      }
      JOINT ShoulderLeft
      {
        OFFSET -12.160784 -2.714056 -7.410313
        CHANNELS 3 Zrotation Xrotation Yrotation
        JOINT ElbowLeft
        {
          OFFSET -4.898049 -21.310619 -2.878627
          CHANNELS 3 Zrotation Xrotation Yrotation
          JOINT WristLeft
          {
            OFFSET 1.584541 -18.102537 -5.425481
            CHANNELS 3 Zrotation Xrotation Yrotation
            JOINT HandLeft
            {
              OFFSET 1.213683 -6.836526 -0.914183
              CHANNELS 3 Zrotation Xrotation Yrotation
              JOINT HandTipLeft
              {
                OFFSET 0.328045 -6.321653 -1.016947
                CHANNELS 3 Zrotation Xrotation Yrotation
                End Site
                {
                  OFFSET 0 0 0
                }
              }
              JOINT ThumbLeft
              {
                OFFSET 3.119237 1.193908 -0.050943
                CHANNELS 3 Zrotation Xrotation Yrotation
                End Site
                {
                  OFFSET 0 0 0
                }
              }
            }
          }
        }
      }
      JOINT ShoulderRight
      {
        OFFSET 11.835114 -3.954302 5.623673
        CHANNELS 3 Zrotation Xrotation Yrotation
        JOINT ElbowRight
        {
          OFFSET 2.422322 -22.610147 2.388073
          CHANNELS 3 Zrotation Xrotation Yrotation
          JOINT WristRight
          {
            OFFSET 1.144453 -22.091973 -4.874454
            CHANNELS 3 Zrotation Xrotation Yrotation
            JOINT HandRight
            {
              OFFSET -0.933111 -6.137085 -1.252689
              CHANNELS 3 Zrotation Xrotation Yrotation
              JOINT HandTipRight
              {
                OFFSET 0.440246 -5.860125 -0.200939
                CHANNELS 3 Zrotation Xrotation Yrotation
                End Site
                {
                  OFFSET 0 0 0
                }
              }
              JOINT ThumbRight
              {
                OFFSET 1.778251 -0.270133 -1.774320
                CHANNELS 3 Zrotation Xrotation Yrotation
                End Site
                {
                  OFFSET 0 0 0
                }
              }
            }
          }
        }
      }
    }
  }
  JOINT HipLeft
  {
    OFFSET -5.428501 1.255994 -6.024615
    CHANNELS 3 Zrotation Xrotation Yrotation
    JOINT KneeLeft
    {
      OFFSET -7.259240 -28.210981 0.985115
      CHANNELS 3 Zrotation Xrotation Yrotation
      JOINT AnkleLeft
      {
        OFFSET -4.657393 -31.338967 8.589815
        CHANNELS 3 Zrotation Xrotation Yrotation
        JOINT FootLeft
        {
          OFFSET 3.412089 -7.913938 -0.765137
          CHANNELS 3 Zrotation Xrotation Yrotation
          End Site
          {
            OFFSET 0 0 0
          }
        }
      }
    }
  }
  JOINT HipRight
  {
    OFFSET 5.091767 0.227562 -0.282660
    CHANNELS 3 Zrotation Xrotation Yrotation
    JOINT KneeRight
    {
      OFFSET -4.644757 -28.339034 2.197292
      CHANNELS 3 Zrotation Xrotation Yrotation
      JOINT AnkleRight
      {
        OFFSET -5.509390 -33.533117 7.856943
        CHANNELS 3 Zrotation Xrotation Yrotation
        JOINT FootRight
        {
          OFFSET -0.143875 -4.427513 -8.172406
          CHANNELS 3 Zrotation Xrotation Yrotation
          End Site
          {
            OFFSET 0 0 0
          }
        }
      }
    }
  }
}
MOTION
Frames: 13
Frame Time: 0.033333
18.727263 73.232501 358.983191 0.000000 0.000000 -28.625681 -0.000000 0.000000 28.625681 -0.000000 0.000000 0.000000 -0.000000 0.000000 0.000000 0.000000 0.000000 0.000000 -0.000000 0.000000 0.000000 -0.000000 0.000000 0.000000 -0.000000 0.000000 0.000000 -0.000000 0.000000 0.000000 0.000000 0.000000 0.000000 0.000000 0.000000 0.000000 -0.000000 0.000000 0.000000 -0.000000 0.000000 0.000000 -0.000000 0.000000 0.000000 -0.000000 0.000000 0.000000 0.000000 0.000000 0.000000 0.000000 0.000000 0.000000 -0.000000 0.000000 28.625681 -0.000000 0.000000 0.000000 -0.000000 0.000000 0.000000 0.000000 0.000000 0.000000 -0.000000 0.000000 28.625681 -0.000000 0.000000 0.000000 -0.000000 0.000000 0.000000 0.000000 0.000000 0.000000
18.710929 73.250882 358.994853 -0.045778 0.083334 -28.587196 0.080072 -0.051270 28.587265 -0.000000 0.000000 0.000000 -0.000000 0.000000 0.000000 0.000000 0.000000 0.000000 -0.000000 0.000000 0.000000 -0.000000 0.000000 0.000000 -0.000000 0.000000 0.000000 0.752648 1.756759 -0.041332 0.000000 0.000000 0.000000 0.000000 0.000000 0.000000 -0.000000 0.000000 0.000000 -0.000000 0.000000 0.000000 -0.000000 0.000000 0.000000 -1.017485 -0.029565 0.032428 0.000000 0.000000 0.000000 0.000000 0.000000 0.000000 0.080072 -0.051270 28.587265 -0.000000 0.000000 0.000000 -0.135278 -7.624845 -3.310340 0.000000 0.000000 0.000000 0.080072 -0.051270 28.587265 -1.295200 0.465162 -0.374310 3.663899 -1.914636 -3.971118 0.000000 0.000000 0.000000
18.708708 73.259922 359.028147 -0.083926 0.117124 -28.541029 0.129687 -0.062791 28.541186 -0.000000 0.000000 0.000000 -0.000000 0.000000 0.000000 0.000000 0.000000 0.000000 -0.000000 0.000000 0.000000 -0.000000 0.000000 0.000000 -0.788933 -1.268984 -0.128878 2.183080 4.599090 -0.012397 0.000000 0.000000 0.000000 0.000000 0.000000 0.000000 -0.000000 0.000000 0.000000 -0.774288 0.874324 0.221751 0.418864 -1.592438 -0.037124 -1.409707 0.739115 -0.098388 0.000000 0.000000 0.000000 0.000000 0.000000 0.000000 0.129687 -0.062791 28.541186 -0.779302 0.272943 -0.252221 0.604899 -12.949383 -5.291060 0.000000 0.000000 0.000000 0.129687 -0.062791 28.541186 -2.314156 0.860568 -0.665255 6.824454 -3.288898 -7.642179 0.000000 0.000000 0.000000
18.720599 73.259621 359.083073 -0.114389 0.101203 -28.487347 0.148809 -0.034390 28.487492 -0.000000 0.000000 0.000000 -0.000000 0.000000 0.000000 0.000000 0.000000 0.000000 -0.000000 0.000000 0.000000 -0.000000 0.000000 0.000000 -0.958696 -1.917592 -0.229158 2.885811 6.631748 -0.014582 0.000000 0.000000 0.000000 0.000000 0.000000 0.000000 -0.000000 0.000000 0.000000 -1.046445 1.114785 0.298331 0.598000 -2.248240 -0.029532 -1.799018 1.281528 -0.130892 0.000000 0.000000 0.000000 0.000000 0.000000 0.000000 0.148809 -0.034390 28.487492 -0.948285 0.328082 -0.305831 1.008418 -15.776858 -6.463399 0.000000 0.000000 0.000000 0.148809 -0.034390 28.487492 -3.058308 1.182235 -0.877682 9.427582 -4.007275 -10.863815 0.000000 0.000000 0.000000
18.746602 73.249979 359.159631 -0.137124 0.035498 -28.426321 0.137489 0.034057 28.426322 -0.000000 0.000000 0.000000 -0.000000 0.000000 0.000000 0.000000 0.000000 0.000000 -0.000000 0.000000 0.000000 -0.000000 0.000000 0.000000 -0.984398 -2.576789 -0.349619 3.331775 8.485185 0.002427 0.000000 0.000000 0.000000 0.000000 0.000000 0.000000 0.822399 0.173307 0.104123 -2.065237 1.059891 0.240769 0.759235 -2.818310 -0.003932 -1.984346 1.941845 -0.157532 0.000000 0.000000 0.000000 0.000000 0.000000 0.000000 0.137489 0.034057 28.426322 -0.974571 0.329815 -0.313191 1.693598 -16.487025 -6.723887 0.000000 0.000000 0.000000 0.137489 0.034057 28.426322 -3.528273 1.427313 -1.015301 11.449000 -4.007099 -13.540135 0.000000 0.000000 0.000000
18.786718 73.230995 359.257821 -0.152103 -0.079975 -28.358131 0.095863 0.142623 28.357905 -0.000000 0.000000 0.000000 -0.000000 0.000000 0.000000 0.000000 0.000000 0.000000 -0.000000 0.000000 0.000000 -0.000000 0.000000 0.000000 -0.869609 -3.247642 -0.487574 3.521962 10.159881 0.050100 0.000000 0.000000 0.000000 0.000000 0.000000 0.000000 1.012801 0.010955 0.107950 -2.381690 1.213874 0.271386 0.904425 -3.307781 0.040094 -1.965812 2.724739 -0.184560 0.000000 0.000000 0.000000 0.000000 0.000000 0.000000 0.095863 0.142623 28.357905 -0.859038 0.278357 -0.274619 2.717170 -15.092637 -6.102802 0.000000 0.000000 0.000000 0.095863 0.142623 28.357905 -3.723253 1.593791 -1.080465 12.883285 -3.282023 -15.628589 0.000000 0.000000 0.000000
18.835223 73.201711 359.363564 -0.176013 -0.206724 -28.216347 0.057359 0.265377 28.215897 -0.000000 0.000000 0.000000 -0.804217 0.320623 -0.093287 0.000000 0.000000 0.000000 -0.000000 0.000000 0.000000 -0.696354 0.647348 0.268991 0.127894 -4.630782 -0.925018 3.438931 11.464484 0.134949 0.000000 0.000000 0.000000 0.000000 0.000000 0.000000 1.050103 0.146609 0.125172 -2.223006 0.452830 0.164965 0.600221 -3.758623 0.291583 -1.922831 5.012866 -0.209579 0.000000 0.000000 0.000000 0.000000 0.000000 0.000000 0.057359 0.265377 28.215897 -0.000000 0.000000 0.000000 2.648617 -13.941440 -5.978564 0.000000 0.000000 0.000000 0.057359 0.265377 28.215897 -3.556576 1.695790 -1.057810 11.701734 -5.857426 -14.008089 0.000000 0.000000 0.000000
18.895329 73.175457 359.470948 -0.094930 -0.371126 -28.191463 -0.091659 0.371948 28.191453 -0.000000 0.000000 0.000000 -1.781879 -0.103149 -0.024590 0.000000 0.000000 0.000000 -0.000000 0.000000 0.000000 -1.018321 0.796418 0.381498 1.172723 -5.260124 -1.179462 2.803028 12.668716 0.299475 0.000000 0.000000 0.000000 0.000000 0.000000 0.000000 1.208798 -0.058474 0.121885 -2.199417 0.036382 0.097536 0.619096 -3.807406 0.430026 -0.590572 5.898024 -0.399706 0.000000 0.000000 0.000000 0.000000 0.000000 0.000000 -0.091659 0.371948 28.191453 -0.000000 0.000000 0.000000 6.736413 -2.587650 -1.578858 0.000000 0.000000 0.000000 -0.091659 0.371948 28.191453 -3.039014 1.666143 -0.940865 14.463250 -1.188842 -19.577383 0.000000 0.000000 0.000000
18.982883 73.131243 359.640695 -0.095788 -0.668200 -28.045635 -0.229638 0.634772 28.046348 -0.604437 -0.890172 -0.051314 -1.697707 0.194781 0.163600 0.000000 0.000000 0.000000 0.603712 0.890664 0.041926 -1.000368 0.261663 0.325039 1.351768 -5.233482 -1.240975 3.283360 13.055553 0.178847 0.000000 0.000000 0.000000 0.000000 0.000000 0.000000 2.175984 -0.106232 0.090118 -2.779494 1.294316 0.260873 1.333746 -3.699815 0.216482 -0.365431 4.273163 -0.396342 0.000000 0.000000 0.000000 0.000000 0.000000 0.000000 -0.981940 1.090644 27.847591 0.452263 -0.754398 0.213062 7.192645 0.938198 -0.341252 0.000000 0.000000 0.000000 -0.229638 0.634772 28.046348 -2.250400 1.533430 -0.749099 12.613744 0.447007 -17.697890 0.000000 0.000000 0.000000
19.012199 73.086909 359.822526 -0.129236 -0.990915 -28.024072 -0.468845 -0.161417 28.008582 -0.302612 -0.381213 -0.053401 -1.856667 0.161348 0.283707 0.000000 0.000000 0.000000 0.344321 0.421414 0.347605 -0.382144 0.329022 -0.032299 1.598857 -4.803780 -1.264161 3.141067 12.948234 0.216276 0.000000 0.000000 0.000000 0.000000 0.000000 0.000000 2.879321 -0.514101 0.059693 -3.252526 2.206111 0.369595 1.185984 -2.966285 0.106043 -0.958216 3.553424 -0.245278 0.000000 0.000000 0.000000 0.000000 0.000000 0.000000 -1.323863 1.594433 27.761152 0.553537 -1.035800 0.291141 8.772720 16.197216 4.706527 0.000000 0.000000 0.000000 -0.351516 0.935447 28.025824 -1.922837 1.527032 -0.676084 13.877214 5.558303 -19.766993 0.000000 0.000000 0.000000
19.147162 73.003122 360.108849 -0.214720 -1.463236 -27.766710 -0.613827 -0.201252 27.746299 -0.358321 -0.474967 -0.069373 -1.978507 -0.442255 0.552581 0.000000 0.000000 0.000000 0.281183 0.761676 0.465977 -0.130070 -0.114473 -0.156634 2.253816 -4.367736 -1.344163 1.516494 12.917801 0.669641 0.000000 0.000000 0.000000 0.000000 0.000000 0.000000 3.279193 -0.568725 0.012640 -3.424505 2.673875 0.454409 1.163693 -2.855128 0.114047 -0.546966 3.383079 -0.308079 0.000000 0.000000 0.000000 0.000000 0.000000 0.000000 -1.990974 2.384819 27.384684 0.876037 -1.567833 0.446701 7.474646 28.336400 9.345957 0.000000 0.000000 0.000000 -1.126889 1.895869 27.641579 -1.332977 0.776628 -0.489597 10.882640 5.771879 -15.216092 0.000000 0.000000 0.000000
19.335757 72.952683 360.418787 -0.418839 -1.967986 -28.051836 -0.670550 -0.338517 28.021282 -0.391829 -0.599643 -0.088712 -1.452240 -0.948867 0.856667 0.000000 0.000000 0.000000 0.115275 1.350075 0.606348 0.529192 -0.852922 -0.389598 2.283193 -4.492232 -1.434597 1.603498 12.079423 0.702739 0.000000 0.000000 0.000000 0.000000 0.000000 0.000000 3.374849 -0.246198 -0.057950 -3.296565 2.859292 0.554367 1.140216 -3.049206 0.182733 -0.043317 3.775309 -0.432425 0.000000 0.000000 0.000000 0.000000 0.000000 0.000000 -2.744591 3.230371 27.548610 1.341415 -2.159362 0.629313 7.372043 33.232291 11.157778 0.000000 0.000000 0.000000 -1.583354 2.792371 27.854105 -1.032994 0.217617 -0.366161 7.565244 6.806553 -9.829488 0.000000 0.000000 0.000000
19.635730 72.728208 360.931692 -0.623804 -2.792248 -27.964356 -0.727904 -0.383840 27.923889 -0.414524 -0.653272 -0.104319 -0.725584 -1.357310 1.178100 0.000000 0.000000 0.000000 -0.286494 2.052323 0.800842 1.154513 -1.643665 -0.608875 1.902672 -2.945165 -1.244395 0.900873 10.717058 0.880633 0.000000 0.000000 0.000000 0.000000 0.000000 0.000000 3.396815 0.139892 -0.148694 -3.396875 3.159602 0.740590 2.133079 -3.877603 0.154682 1.894325 4.547629 -0.730964 0.000000 0.000000 0.000000 0.000000 0.000000 0.000000 -3.749627 4.889835 27.267024 1.684165 -3.257808 0.947857 7.824672 33.357953 11.017009 0.000000 0.000000 0.000000 -2.333695 3.871038 27.709383 -0.852242 -0.106865 -0.334546 2.659094 -3.758480 -0.899129 0.000000 0.000000 0.000000
